<?xml version="1.0" encoding="UTF-8" standalone="no"?>
<!-- Created with Inkscape (http://www.inkscape.org/) -->

<svg
   xmlns:dc="http://purl.org/dc/elements/1.1/"
   xmlns:cc="http://creativecommons.org/ns#"
   xmlns:rdf="http://www.w3.org/1999/02/22-rdf-syntax-ns#"
   xmlns:svg="http://www.w3.org/2000/svg"
   xmlns="http://www.w3.org/2000/svg"
   xmlns:xlink="http://www.w3.org/1999/xlink"
   xmlns:sodipodi="http://sodipodi.sourceforge.net/DTD/sodipodi-0.dtd"
   xmlns:inkscape="http://www.inkscape.org/namespaces/inkscape"
   width="54.806602mm"
   height="54.806545mm"
   viewBox="0 0 54.806602 54.806545"
   version="1.1"
   id="svg950"
   inkscape:version="0.92.4 (5da689c313, 2019-01-14)"
   sodipodi:docname="magnolia.svg"
   inkscape:export-filename="C:\Users\Jon Pretty\Documents\magnolia2.png"
   inkscape:export-xdpi="463.44836"
   inkscape:export-ydpi="463.44836">
  <defs
     id="defs944">
    <linearGradient
       inkscape:collect="always"
       id="linearGradient7564">
      <stop
         style="stop-color:#ff2971;stop-opacity:1"
         offset="0"
         id="stop7560" />
      <stop
         style="stop-color:#ffde02;stop-opacity:1"
         offset="1"
         id="stop7562" />
    </linearGradient>
    <linearGradient
       inkscape:collect="always"
       xlink:href="#linearGradient7564"
       id="linearGradient7566"
       x1="662.21423"
       y1="29.382465"
       x2="717.02075"
       y2="29.382465"
       gradientUnits="userSpaceOnUse" />
  </defs>
  <sodipodi:namedview
     id="base"
     pagecolor="#ffffff"
     bordercolor="#666666"
     borderopacity="1.0"
     inkscape:pageopacity="0.0"
     inkscape:pageshadow="2"
     inkscape:zoom="0.7"
     inkscape:cx="132.70717"
     inkscape:cy="224.02649"
     inkscape:document-units="mm"
     inkscape:current-layer="layer1"
     showgrid="false"
     fit-margin-top="0"
     fit-margin-left="0"
     fit-margin-right="0"
     fit-margin-bottom="0"
     inkscape:window-width="2256"
     inkscape:window-height="1481"
     inkscape:window-x="-8"
     inkscape:window-y="-8"
     inkscape:window-maximized="1">
    <inkscape:grid
       type="xygrid"
       id="grid952"
       units="mm"
       spacingx="1"
       spacingy="1"
       dotted="true"
       originx="553.35712"
       originy="-279.32442" />
  </sodipodi:namedview>
  <metadata
     id="metadata947">
    <rdf:RDF>
      <cc:Work
         rdf:about="">
        <dc:format>image/svg+xml</dc:format>
        <dc:type
           rdf:resource="http://purl.org/dc/dcmitype/StillImage" />
        <dc:title></dc:title>
      </cc:Work>
    </rdf:RDF>
  </metadata>
  <g
     inkscape:label="Layer 1"
     inkscape:groupmode="layer"
     id="layer1"
     transform="translate(553.35713,37.130976)">
    <g
       id="g7753"
       transform="translate(163.66369,19.654762)">
      <circle
         transform="scale(-1)"
         r="27.403273"
         cy="29.382465"
         cx="689.61749"
         id="path7343"
         style="opacity:1;vector-effect:none;fill:url(#linearGradient7566);fill-opacity:1;stroke:none;stroke-width:1;stroke-linecap:butt;stroke-linejoin:miter;stroke-miterlimit:4;stroke-dasharray:none;stroke-dashoffset:0;stroke-opacity:1" />
      <path
         sodipodi:nodetypes="ccccccccccccccccccccccccccccccsccssc"
         inkscape:connector-curvature="0"
         transform="scale(0.26458333)"
         id="path7343-4"
         d="m -2701.4531,-152.1543 c -0.1248,0.256 -0.2485,0.51251 -0.3711,0.76953 -1.3443,3.18036 -2.5287,6.42595 -3.5488,9.72461 -1.0209,3.29894 -1.8761,6.64687 -2.5625,10.03125 -0.6859,3.38419 -1.2022,6.80057 -1.5469,10.23633 -0.3448,3.43583 -0.5175,6.88676 -0.5176,10.33985 0,3.00009 0.1992,5.95133 0.4492,8.88671 0.1752,1.86908 0.4012,3.733052 0.6778,5.589848 0.2101,1.4988 0.4099,3.00101 0.6835,4.478516 0.3979,2.062356 0.8584,4.112132 1.3809,6.146484 0.3119,1.250489 0.6041,2.508199 0.9609,3.740234 0.6308,2.125404 1.3298,4.230004 2.0957,6.310547 0.4061,1.123716 0.789,2.25802 1.2325,3.363282 0.8414,2.055997 1.7488,4.08439 2.7207,6.082031 0.5228,1.092462 1.0165,2.200619 1.5761,3.271484 1.0056,1.885322 2.0692,3.739073 3.1895,5.558594 0.6733,1.114049 1.3138,2.249821 2.0273,3.335938 1.1244,1.673866 2.2974,3.314539 3.5176,4.919921 0.8371,1.125246 1.6366,2.279695 2.5176,3.369141 1.2388,1.492041 2.5192,2.948996 3.8398,4.369141 0.983,1.085366 1.9256,2.207248 2.9532,3.25 1.4139,1.394375 2.8676,2.747799 4.3593,4.058593 1.0265,0.92887 2.0091,1.905303 3.0723,2.792969 1.864,1.522705 3.7805,2.97997 5.7461,4.369141 0.7701,0.55707 1.4954,1.170832 2.2812,1.707031 2.7902,1.90408 5.6719,3.670515 8.6348,5.292969 3.0304,1.655774 6.1417,3.158954 9.3223,4.503906 3.1809,1.34502 6.4272,2.530094 9.7265,3.550781 3.299,1.020207 6.6469,1.87479 10.0313,2.5605471 3.3682,0.6817135 6.7682,1.1953697 10.1875,1.5390625 3.4175,0.3404454 6.8815,0.5253916 10.3887,0.5253906 3.2342,-3e-7 6.2565,-0.1943124 9.1738,-0.484375 0.7445,-0.082427 1.488,-0.1729269 2.2305,-0.2714843 46.6059,-5.9704169 72.166,-49.6918119 72.166,-102.8164019 0,-57.20092 -46.3694,-63.57031 -103.5703,-63.57032 -38.6249,-1e-5 -63.1424,2.97064 -75.0254,22.46875 z"
         style="opacity:0.35899999;vector-effect:none;fill:#ffffff;fill-opacity:1;stroke:none;stroke-width:3.77952766;stroke-linecap:butt;stroke-linejoin:miter;stroke-miterlimit:4;stroke-dasharray:none;stroke-dashoffset:0;stroke-opacity:1" />
      <path
         transform="scale(0.26458333)"
         id="path7727"
         d="m -2520.8242,-52.771484 c 9.4891,-13.910504 15.6828,-30.242424 17.4414,-47.888676 a 103.57142,103.57142 0 0 1 -1.5391,10.185551 103.57142,103.57142 0 0 1 -2.5605,10.029297 103.57142,103.57142 0 0 1 -3.5508,9.726562 103.57142,103.57142 0 0 1 -4.502,9.322266 103.57142,103.57142 0 0 1 -5.289,8.625 z"
         style="opacity:0.35899999;vector-effect:none;fill:#ffffff;fill-opacity:1;stroke:none;stroke-width:3.77952766;stroke-linecap:butt;stroke-linejoin:miter;stroke-miterlimit:4;stroke-dasharray:none;stroke-dashoffset:0;stroke-opacity:1"
         inkscape:connector-curvature="0" />
      <path
         sodipodi:nodetypes="scccccccccccccccccccccccccccccccccsss"
         inkscape:connector-curvature="0"
         transform="scale(0.26458333)"
         id="path7343-4-5"
         d="m -2606.4277,-7.4804688 c 2.9994,-5e-7 5.95,-0.1993391 8.8847,-0.4492187 1.8711,-0.1757539 3.737,-0.4024003 5.5957,-0.6796875 1.4977,-0.2101011 2.9982,-0.408193 4.4746,-0.6816406 2.0472,-0.3948628 4.082,-0.8514514 6.1016,-1.3691404 1.2729,-0.316907 2.5528,-0.615 3.8066,-0.978516 2.1128,-0.628376 4.2051,-1.324043 6.2735,-2.085937 1.1282,-0.407545 2.2673,-0.791096 3.3769,-1.236329 2.056,-0.841438 4.0844,-1.748808 6.0821,-2.720703 1.0924,-0.522852 2.2006,-1.016554 3.2715,-1.576171 1.8947,-1.010199 3.7576,-2.079075 5.5859,-3.205079 1.0994,-0.664897 2.2208,-1.295868 3.293,-2 1.6901,-1.134527 3.3465,-2.318635 4.9668,-3.550781 1.1142,-0.829518 2.2568,-1.623465 3.3359,-2.496094 1.5029,-1.24603 2.9703,-2.534305 4.4004,-3.863281 1.0722,-0.971721 2.1803,-1.90462 3.2109,-2.919922 1.4255,-1.442804 2.8082,-2.927168 4.1465,-4.451172 0.8996,-0.996278 1.8462,-1.947678 2.707,-2.978515 1.5121,-1.852327 2.9596,-3.756463 4.3399,-5.708985 0.5716,-0.789286 1.2003,-1.534017 1.75,-2.339843 1.9025,-2.787121 3.6676,-5.665555 5.289,-8.625 1.6551,-3.030433 3.1577,-6.141741 4.502,-9.322266 1.345,-3.180958 2.5301,-6.427201 3.5508,-9.726562 1.0201,-3.298333 1.8747,-6.645611 2.5605,-10.029297 0.6817,-3.367553 1.1953,-6.76694 1.5391,-10.185551 0.3407,-3.41877 0.5254,-6.88411 0.5254,-10.39257 -1e-4,-2.44436 -0.087,-4.88795 -0.2598,-7.32618 -0.2438,-3.44441 -0.6597,-6.87447 -1.2461,-10.27734 -0.587,-3.40288 -1.3438,-6.77428 -2.2676,-10.10156 -0.9241,-3.32713 -2.014,-6.60597 -3.2656,-9.82422 -1.2511,-3.21826 -2.6624,-6.37193 -4.2285,-9.44922 -1.566,-3.07747 -3.285,-6.07471 -5.1504,-8.98047 -1.8661,-2.90596 -3.8764,-5.71676 -6.0234,-8.42187 -0.8807,-1.04311 -1.7819,-2.0687 -2.7032,-3.07618 -13.6382,-10.84908 -32.9575,-16.11328 -58.4257,-16.11328 -57.201,-1e-5 -103.5723,26.36938 -103.5723,83.57032 0,57.200923 26.3713,103.5722801 83.5723,103.5722612 z"
         style="opacity:0.35899999;vector-effect:none;fill:#ffffff;fill-opacity:1;stroke:none;stroke-width:3.77952766;stroke-linecap:butt;stroke-linejoin:miter;stroke-miterlimit:4;stroke-dasharray:none;stroke-dashoffset:0;stroke-opacity:1" />
      <path
         sodipodi:nodetypes="cccccccccccccccccccccccccccsccssc"
         inkscape:connector-curvature="0"
         transform="scale(0.26458333)"
         id="path7343-4-5-6"
         d="m -2707.9395,-131.60742 c -0.6839,3.37716 -1.1988,6.78635 -1.5429,10.21484 -0.3448,3.43583 -0.5175,6.88676 -0.5176,10.33985 0,3.00009 0.1992,5.95133 0.4492,8.88671 0.1752,1.86908 0.4012,3.733052 0.6778,5.589848 0.2101,1.4988 0.4099,3.00101 0.6835,4.478516 0.3979,2.062356 0.8584,4.112132 1.3809,6.146484 0.3119,1.250489 0.6041,2.508199 0.9609,3.740234 0.6308,2.125404 1.3298,4.230004 2.0957,6.310547 0.4061,1.123716 0.789,2.25802 1.2325,3.363282 0.8414,2.055997 1.7488,4.08439 2.7207,6.082031 0.5228,1.092462 1.0165,2.200619 1.5761,3.271484 1.0056,1.885322 2.0692,3.739073 3.1895,5.558594 0.6733,1.114049 1.3138,2.249821 2.0273,3.335938 1.1244,1.673866 2.2974,3.314539 3.5176,4.919921 0.8371,1.125246 1.6366,2.279695 2.5176,3.369141 1.2388,1.492041 2.5192,2.948996 3.8398,4.369141 0.983,1.085366 1.9256,2.207248 2.9532,3.25 1.4139,1.394375 2.8676,2.747799 4.3593,4.058593 1.0265,0.92887 2.0091,1.905303 3.0723,2.792969 1.864,1.522705 3.7805,2.97997 5.7461,4.369141 0.7701,0.55707 1.4954,1.170832 2.2812,1.707031 2.7902,1.90408 5.6719,3.670515 8.6348,5.292969 3.0304,1.655774 6.1417,3.158954 9.3223,4.503906 3.1809,1.34502 6.4272,2.530094 9.7265,3.550781 3.299,1.020207 6.6469,1.87479 10.0313,2.5605471 3.3682,0.6817135 6.7682,1.1953697 10.1875,1.5390625 3.4175,0.3404452 6.8815,0.5253918 10.3887,0.5253906 3.1122,-6e-7 6.0929,-0.1979704 9.0234,-0.4667968 1.2089,-0.1252395 2.4154,-0.2717466 3.6191,-0.4394532 48.4111,-6.4153272 50.9278,-29.8840392 50.9278,-82.6660112 0,-57.20092 -26.3694,-43.57031 -83.5703,-43.57032 -48.1863,-1e-5 -74.4166,-23.6575 -81.5118,3.01563 z"
         style="opacity:0.35899999;vector-effect:none;fill:#ffffff;fill-opacity:1;stroke:none;stroke-width:3.77952766;stroke-linecap:butt;stroke-linejoin:miter;stroke-miterlimit:4;stroke-dasharray:none;stroke-dashoffset:0;stroke-opacity:1" />
      <path
         sodipodi:nodetypes="scccccccccccccccccccccccccccccsss"
         inkscape:connector-curvature="0"
         transform="scale(0.26458333)"
         id="path7343-4-5-6-8"
         d="m -2606.4277,-7.4804688 c 2.9994,-5e-7 5.95,-0.1993391 8.8847,-0.4492187 1.8711,-0.1757539 3.737,-0.4024003 5.5957,-0.6796875 1.4977,-0.2101011 2.9982,-0.408193 4.4746,-0.6816406 2.0472,-0.3948628 4.082,-0.8514514 6.1016,-1.3691404 1.2729,-0.316907 2.5528,-0.614999 3.8066,-0.978516 2.1128,-0.628376 4.2051,-1.324043 6.2735,-2.085937 1.1282,-0.407545 2.2673,-0.791096 3.3769,-1.236329 2.056,-0.841438 4.0844,-1.748808 6.0821,-2.720703 1.0924,-0.522852 2.2006,-1.016554 3.2715,-1.576171 1.8947,-1.010199 3.7576,-2.079075 5.5859,-3.205079 1.0994,-0.664897 2.2208,-1.295868 3.293,-2 1.6901,-1.134527 3.3465,-2.318635 4.9668,-3.550781 1.1142,-0.829518 2.2568,-1.623465 3.3359,-2.496094 1.5029,-1.24603 2.9703,-2.534305 4.4004,-3.863281 1.0722,-0.971721 2.1803,-1.90462 3.2109,-2.919922 1.4255,-1.442804 2.8082,-2.927168 4.1465,-4.451172 0.8996,-0.996278 1.8462,-1.947678 2.707,-2.978515 1.5121,-1.852327 2.9596,-3.756463 4.3399,-5.708985 0.5716,-0.789286 1.2003,-1.534017 1.75,-2.339843 1.9025,-2.787121 3.6676,-5.665555 5.289,-8.625 1.6551,-3.030433 3.1577,-6.141741 4.502,-9.322266 1.345,-3.180958 2.5301,-6.427201 3.5508,-9.726562 1.0201,-3.298333 1.8747,-6.645611 2.5605,-10.029297 0.6817,-3.367553 1.1953,-6.76694 1.5391,-10.185551 0.3407,-3.41877 0.5254,-6.88411 0.5254,-10.39257 -1e-4,-2.44436 -0.087,-4.88795 -0.2598,-7.32618 -0.2438,-3.44441 -0.6597,-6.87447 -1.2461,-10.27734 -0.587,-3.40288 -1.3438,-6.77428 -2.2676,-10.10156 -0.029,-0.0886 -0.059,-0.17713 -0.088,-0.26563 -9.1356,-23.79677 -34.9389,-15.5996 -79.7089,-15.59961 -57.201,-1e-5 -103.5723,-13.63062 -103.5723,43.57032 0,57.200927 26.3713,103.5722801 83.5723,103.5722612 z"
         style="opacity:0.35899999;vector-effect:none;fill:#ffffff;fill-opacity:1;stroke:none;stroke-width:3.77952766;stroke-linecap:butt;stroke-linejoin:miter;stroke-miterlimit:4;stroke-dasharray:none;stroke-dashoffset:0;stroke-opacity:1" />
      <path
         sodipodi:nodetypes="sssss"
         inkscape:connector-curvature="0"
         id="path7343-4-5-6-2"
         d="m -662.21422,-29.382466 c 0,15.134409 -12.26886,27.4032702 -27.40327,27.4032732 -15.13441,5e-6 -16.81995,-6.9771935 -16.81995,-22.1116062 0,-15.134413 6.97719,-6.236609 22.1116,-6.236605 15.13441,1e-6 22.11162,-14.189471 22.11162,0.944938 z"
         style="opacity:0.35899999;vector-effect:none;fill:#ffffff;fill-opacity:1;stroke:none;stroke-width:1;stroke-linecap:butt;stroke-linejoin:miter;stroke-miterlimit:4;stroke-dasharray:none;stroke-dashoffset:0;stroke-opacity:1" />
    </g>
  </g>
</svg>
